<svg xmlns="http://www.w3.org/2000/svg" xmlns:xlink="http://www.w3.org/1999/xlink" version="1.1" x="0px" y="0px" viewBox="0 0 100 125" enable-background="new 0 0 100 100" xml:space="preserve"><g display="none"><path display="inline" d="M44.237,31.614L28.733,47.118c-0.016,0.016-0.036,0.026-0.052,0.043   c-0.558,0.558-0.907,1.244-1.065,1.965c-0.005,0.024-0.016,0.046-0.021,0.07c-0.052,0.262-0.081,0.529-0.081,0.795   c0,0.001,0,0.002,0,0.002s0,0.002,0,0.002c0,0.267,0.028,0.533,0.081,0.795c0.005,0.024,0.015,0.046,0.021,0.07   c0.158,0.721,0.507,1.407,1.065,1.965c0.016,0.016,0.036,0.027,0.052,0.043l15.504,15.504c1.556,1.556,4.101,1.556,5.657,0   c1.556-1.556,1.556-4.101,0-5.657l-8.723-8.723h27.343c2.2,0,4-1.8,4-4s-1.8-4-4-4H41.171l8.723-8.723   c1.556-1.556,1.556-4.101,0-5.657C48.338,30.059,45.793,30.059,44.237,31.614z"/></g><g><path d="M5,50c0,24.853,20.147,45,45,45c24.852,0,45-20.147,45-45C95,25.147,74.853,5,50,5C25.147,5,5,25.147,5,50z M49.88,31.62   c1.556,1.556,1.556,4.101,0,5.657L41.157,46H68.5c2.2,0,4,1.8,4,4s-1.8,4-4,4H41.157l8.723,8.723c1.556,1.556,1.556,4.101,0,5.657   c-1.556,1.556-4.101,1.556-5.657,0L28.719,52.876c-0.016-0.016-0.036-0.026-0.052-0.043c-0.558-0.558-0.907-1.244-1.065-1.965   c-0.005-0.024-0.016-0.046-0.021-0.07c-0.052-0.262-0.081-0.529-0.081-0.795c0-0.001,0-0.002,0-0.002s0-0.002,0-0.002   c0-0.267,0.028-0.533,0.081-0.795c0.005-0.024,0.015-0.046,0.021-0.07c0.158-0.721,0.507-1.407,1.065-1.965   c0.016-0.016,0.036-0.027,0.052-0.043L44.223,31.62C45.779,30.064,48.324,30.064,49.88,31.62z"/></g><g display="none"><g display="inline"><path d="M18.18,81.82c17.574,17.574,46.066,17.574,63.64,0c17.573-17.573,17.574-46.066,0-63.64    c-17.573-17.573-46.066-17.573-63.64,0C0.606,35.754,0.607,64.246,18.18,81.82z M78.284,21.716    c15.621,15.621,15.621,40.948,0,56.569c-15.621,15.621-40.947,15.621-56.569,0c-15.621-15.621-15.621-40.947,0-56.569    C37.336,6.095,62.663,6.095,78.284,21.716z"/><path d="M32.918,41.088l0,21.926c0,0.023-0.007,0.044-0.007,0.067c0,0.789,0.238,1.521,0.636,2.142    c0.013,0.021,0.021,0.044,0.035,0.065c0.148,0.223,0.317,0.431,0.505,0.62c0.001,0.001,0.001,0.001,0.001,0.002    c0.001,0.001,0.001,0.001,0.002,0.001c0.189,0.189,0.397,0.357,0.62,0.505c0.021,0.014,0.044,0.022,0.065,0.035    c0.621,0.398,1.354,0.637,2.142,0.637c0.023,0,0.044-0.006,0.067-0.007l21.926,0c2.2,0,4-1.8,4-4c0-2.2-1.8-4-4-4l-12.336,0    L65.91,39.747c1.556-1.556,1.556-4.101,0-5.657c-1.556-1.556-4.101-1.556-5.657,0L40.918,53.425l0-12.336c0-2.2-1.8-4-4-4    C34.718,37.088,32.918,38.888,32.918,41.088z"/></g></g><text x="0" y="115" fill="#000000" font-size="5px" font-weight="bold" font-family="'Helvetica Neue', Helvetica, Arial-Unicode, Arial, Sans-serif">Created by Marc Grützmacher</text><text x="0" y="120" fill="#000000" font-size="5px" font-weight="bold" font-family="'Helvetica Neue', Helvetica, Arial-Unicode, Arial, Sans-serif">from the Noun Project</text></svg>