<?xml version="1.0" encoding="UTF-8" standalone="no"?>
<svg
   xmlns:dc="http://purl.org/dc/elements/1.1/"
   xmlns:cc="http://creativecommons.org/ns#"
   xmlns:rdf="http://www.w3.org/1999/02/22-rdf-syntax-ns#"
   xmlns:svg="http://www.w3.org/2000/svg"
   xmlns="http://www.w3.org/2000/svg"
   xmlns:sodipodi="http://sodipodi.sourceforge.net/DTD/sodipodi-0.dtd"
   xmlns:inkscape="http://www.inkscape.org/namespaces/inkscape"
   version="1.1"
   x="0px"
   y="0px"
   viewBox="0 0 100 125"
   enable-background="new 0 0 100 100"
   xml:space="preserve"
   id="svg2"
   inkscape:version="0.91 r13725"
   sodipodi:docname="left_white.svg"><metadata
     id="metadata28"><rdf:RDF><cc:Work
         rdf:about=""><dc:format>image/svg+xml</dc:format><dc:type
           rdf:resource="http://purl.org/dc/dcmitype/StillImage" /></cc:Work></rdf:RDF></metadata><defs
     id="defs26" /><sodipodi:namedview
     pagecolor="#ffffff"
     bordercolor="#666666"
     borderopacity="1"
     objecttolerance="10"
     gridtolerance="10"
     guidetolerance="10"
     inkscape:pageopacity="0"
     inkscape:pageshadow="2"
     inkscape:window-width="1304"
     inkscape:window-height="746"
     id="namedview24"
     showgrid="false"
     inkscape:zoom="1.888"
     inkscape:cx="50"
     inkscape:cy="62.5"
     inkscape:window-x="54"
     inkscape:window-y="-8"
     inkscape:window-maximized="1"
     inkscape:current-layer="svg2" /><g
     display="none"
     id="g4"><path
       display="inline"
       d="M44.237,31.614L28.733,47.118c-0.016,0.016-0.036,0.026-0.052,0.043   c-0.558,0.558-0.907,1.244-1.065,1.965c-0.005,0.024-0.016,0.046-0.021,0.07c-0.052,0.262-0.081,0.529-0.081,0.795   c0,0.001,0,0.002,0,0.002s0,0.002,0,0.002c0,0.267,0.028,0.533,0.081,0.795c0.005,0.024,0.015,0.046,0.021,0.07   c0.158,0.721,0.507,1.407,1.065,1.965c0.016,0.016,0.036,0.027,0.052,0.043l15.504,15.504c1.556,1.556,4.101,1.556,5.657,0   c1.556-1.556,1.556-4.101,0-5.657l-8.723-8.723h27.343c2.2,0,4-1.8,4-4s-1.8-4-4-4H41.171l8.723-8.723   c1.556-1.556,1.556-4.101,0-5.657C48.338,30.059,45.793,30.059,44.237,31.614z"
       id="path6" /></g><g
     id="g8"><path
       d="M5,50c0,24.853,20.147,45,45,45c24.852,0,45-20.147,45-45C95,25.147,74.853,5,50,5C25.147,5,5,25.147,5,50z M49.88,31.62   c1.556,1.556,1.556,4.101,0,5.657L41.157,46H68.5c2.2,0,4,1.8,4,4s-1.8,4-4,4H41.157l8.723,8.723c1.556,1.556,1.556,4.101,0,5.657   c-1.556,1.556-4.101,1.556-5.657,0L28.719,52.876c-0.016-0.016-0.036-0.026-0.052-0.043c-0.558-0.558-0.907-1.244-1.065-1.965   c-0.005-0.024-0.016-0.046-0.021-0.07c-0.052-0.262-0.081-0.529-0.081-0.795c0-0.001,0-0.002,0-0.002s0-0.002,0-0.002   c0-0.267,0.028-0.533,0.081-0.795c0.005-0.024,0.015-0.046,0.021-0.07c0.158-0.721,0.507-1.407,1.065-1.965   c0.016-0.016,0.036-0.027,0.052-0.043L44.223,31.62C45.779,30.064,48.324,30.064,49.88,31.62z"
       id="path10" /></g><g
     display="none"
     id="g12"><g
       display="inline"
       id="g14"><path
         d="M18.18,81.82c17.574,17.574,46.066,17.574,63.64,0c17.573-17.573,17.574-46.066,0-63.64    c-17.573-17.573-46.066-17.573-63.64,0C0.606,35.754,0.607,64.246,18.18,81.82z M78.284,21.716    c15.621,15.621,15.621,40.948,0,56.569c-15.621,15.621-40.947,15.621-56.569,0c-15.621-15.621-15.621-40.947,0-56.569    C37.336,6.095,62.663,6.095,78.284,21.716z"
         id="path16" /><path
         d="M32.918,41.088l0,21.926c0,0.023-0.007,0.044-0.007,0.067c0,0.789,0.238,1.521,0.636,2.142    c0.013,0.021,0.021,0.044,0.035,0.065c0.148,0.223,0.317,0.431,0.505,0.62c0.001,0.001,0.001,0.001,0.001,0.002    c0.001,0.001,0.001,0.001,0.002,0.001c0.189,0.189,0.397,0.357,0.62,0.505c0.021,0.014,0.044,0.022,0.065,0.035    c0.621,0.398,1.354,0.637,2.142,0.637c0.023,0,0.044-0.006,0.067-0.007l21.926,0c2.2,0,4-1.8,4-4c0-2.2-1.8-4-4-4l-12.336,0    L65.91,39.747c1.556-1.556,1.556-4.101,0-5.657c-1.556-1.556-4.101-1.556-5.657,0L40.918,53.425l0-12.336c0-2.2-1.8-4-4-4    C34.718,37.088,32.918,38.888,32.918,41.088z"
         id="path18" /></g></g><path
     style="fill:#e6e6e6"
     d="m 36.555401,60.640055 c -8.119117,-8.068413 -8.907096,-9.014443 -8.907096,-10.693673 0,-1.673355 0.788878,-2.63359 8.606992,-10.476572 9.614564,-9.645148 10.875902,-10.395237 13.33883,-7.932308 2.547881,2.547881 1.992844,4.081999 -3.50526,9.688505 l -4.864524,4.960434 14.62481,0 14.624809,0 1.097765,1.395582 c 1.494384,1.899801 1.379906,3.170712 -0.450475,5.001093 l -1.54824,1.54824 -14.198714,0 -14.198715,0 4.888903,4.909316 c 5.423633,5.446279 6.05585,7.051265 3.663029,9.299204 -2.58955,2.432756 -3.527714,1.884348 -13.172114,-7.699821 z"
     id="path3340"
     inkscape:connector-curvature="0" /></svg>