<?xml version="1.0" encoding="UTF-8" standalone="no"?>
<svg
   xmlns:dc="http://purl.org/dc/elements/1.1/"
   xmlns:cc="http://creativecommons.org/ns#"
   xmlns:rdf="http://www.w3.org/1999/02/22-rdf-syntax-ns#"
   xmlns:svg="http://www.w3.org/2000/svg"
   xmlns="http://www.w3.org/2000/svg"
   xmlns:sodipodi="http://sodipodi.sourceforge.net/DTD/sodipodi-0.dtd"
   xmlns:inkscape="http://www.inkscape.org/namespaces/inkscape"
   version="1.1"
   x="0px"
   y="0px"
   viewBox="0 0 100 125"
   enable-background="new 0 0 100 100"
   xml:space="preserve"
   id="svg2"
   inkscape:version="0.91 r13725"
   sodipodi:docname="right_white.svg"><metadata
     id="metadata28"><rdf:RDF><cc:Work
         rdf:about=""><dc:format>image/svg+xml</dc:format><dc:type
           rdf:resource="http://purl.org/dc/dcmitype/StillImage" /></cc:Work></rdf:RDF></metadata><defs
     id="defs26" /><sodipodi:namedview
     pagecolor="#ffffff"
     bordercolor="#666666"
     borderopacity="1"
     objecttolerance="10"
     gridtolerance="10"
     guidetolerance="10"
     inkscape:pageopacity="0"
     inkscape:pageshadow="2"
     inkscape:window-width="1304"
     inkscape:window-height="746"
     id="namedview24"
     showgrid="false"
     inkscape:zoom="5.3400704"
     inkscape:cx="57.448302"
     inkscape:cy="76.166586"
     inkscape:window-x="54"
     inkscape:window-y="-8"
     inkscape:window-maximized="1"
     inkscape:current-layer="svg2" /><g
     display="none"
     id="g4"><path
       display="inline"
       d="M67.081,58.912l0-21.926c0-0.023,0.007-0.044,0.007-0.067c0-0.789-0.238-1.521-0.636-2.142   c-0.013-0.021-0.021-0.044-0.035-0.065c-0.148-0.223-0.317-0.431-0.505-0.62c-0.001-0.001-0.001-0.001-0.001-0.002   c-0.001-0.001-0.001-0.001-0.002-0.001c-0.189-0.189-0.397-0.357-0.62-0.505c-0.021-0.014-0.044-0.022-0.065-0.035   c-0.621-0.398-1.354-0.636-2.142-0.636c-0.023,0-0.044,0.006-0.067,0.007l-21.926,0c-2.2,0-4,1.8-4,4c0,2.2,1.8,4,4,4l12.336,0   L34.09,60.253c-1.556,1.556-1.556,4.101,0,5.657c1.556,1.556,4.101,1.556,5.657,0l19.335-19.335l0,12.336c0,2.2,1.8,4,4,4   C65.281,62.912,67.081,61.112,67.081,58.912z"
       id="path6" /></g><g
     id="g8"><path
       d="M95,50C95,25.147,74.853,5,50,5C25.147,5,5,25.147,5,50c0,24.852,20.148,45,45,45C74.853,95,95,74.852,95,50z M50.12,68.38   c-1.556-1.556-1.556-4.101,0-5.657L58.843,54H31.5c-2.2,0-4-1.8-4-4s1.8-4,4-4h27.343l-8.723-8.723   c-1.556-1.556-1.556-4.101,0-5.657c1.556-1.556,4.101-1.556,5.657,0l15.504,15.504c0.016,0.016,0.036,0.026,0.052,0.043   c0.558,0.558,0.907,1.244,1.065,1.965c0.005,0.024,0.016,0.046,0.021,0.07c0.052,0.262,0.081,0.529,0.081,0.795   c0,0.001,0,0.002,0,0.002s0,0.002,0,0.002c0,0.267-0.028,0.533-0.081,0.795c-0.005,0.024-0.015,0.046-0.021,0.07   c-0.158,0.721-0.507,1.407-1.065,1.965c-0.016,0.016-0.036,0.027-0.052,0.043L55.777,68.38   C54.221,69.936,51.676,69.936,50.12,68.38z"
       id="path10" /></g><g
     display="none"
     id="g12"><g
       display="inline"
       id="g14"><path
         d="M95,50C95,25.147,74.853,5,50,5C25.147,5,5,25.147,5,50c0,24.852,20.148,45,45,45C74.853,95,95,74.852,95,50z M10,50    c0-22.092,17.909-40,40-40c22.092,0,40,17.908,40,40c0,22.091-17.908,40-40,40C27.909,90,10,72.091,10,50z"
         id="path16" /><path
         d="M55.777,68.38l15.504-15.504c0.016-0.016,0.036-0.026,0.052-0.043c0.558-0.558,0.907-1.244,1.065-1.965    c0.005-0.024,0.016-0.046,0.021-0.07c0.052-0.262,0.081-0.529,0.081-0.795c0-0.001,0-0.002,0-0.002s0-0.002,0-0.002    c0-0.267-0.028-0.533-0.081-0.795c-0.005-0.024-0.015-0.046-0.021-0.07c-0.158-0.721-0.507-1.407-1.065-1.965    c-0.016-0.016-0.036-0.027-0.052-0.043L55.777,31.62c-1.556-1.556-4.101-1.556-5.657,0c-1.556,1.556-1.556,4.101,0,5.657    L58.843,46H31.5c-2.2,0-4,1.8-4,4s1.8,4,4,4h27.343l-8.723,8.723c-1.556,1.556-1.556,4.101,0,5.657    C51.676,69.936,54.221,69.936,55.777,68.38z"
         id="path18" /></g></g><path
     style="fill:#e6e6e6"
     d="m 51.699314,69.243903 c -2.149309,-0.751297 -3.275927,-3.435279 -2.263307,-5.391961 0.186556,-0.360482 2.413116,-2.741068 4.94791,-5.290192 l 4.608719,-4.63477 -14.133415,-0.0041 c -13.357345,-0.0039 -14.174544,-0.02315 -14.882467,-0.350913 -2.627648,-1.216562 -3.13436,-4.618694 -0.970832,-6.518297 0.373835,-0.328231 0.99801,-0.68518 1.387056,-0.793219 0.464291,-0.128935 5.499602,-0.196793 14.653507,-0.197479 l 13.946151,-0.001 -4.608719,-4.634771 c -2.534794,-2.549123 -4.737379,-4.890488 -4.894634,-5.203031 -0.667968,-1.32759 -0.566005,-2.745559 0.290377,-4.038225 0.489725,-0.739214 2.177945,-1.667343 3.029997,-1.665795 1.678665,0.003 1.601657,-0.06144 10.473795,8.770739 5.637553,5.612162 8.515711,8.609197 8.750454,9.111876 0.446599,0.956352 0.446303,2.228195 -7.49e-4,3.183478 -0.234722,0.501573 -3.125808,3.512531 -8.750454,9.113275 -7.133185,7.102869 -8.512879,8.394689 -9.148973,8.566258 -0.911677,0.245902 -1.688454,0.238941 -2.434425,-0.02182 l 9e-6,0 z"
     id="path3340"
     inkscape:connector-curvature="0" /><path
     style="fill:#e6e6e6"
     d="m 51.404518,69.128249 c -0.352836,-0.16999 -0.846427,-0.551165 -1.096867,-0.847052 -0.250441,-0.295888 -0.572466,-0.655097 -0.715614,-0.798244 -0.143148,-0.143148 -0.209149,-0.260269 -0.146671,-0.260269 0.06248,0 0.01513,-0.183992 -0.105225,-0.408869 -0.24907,-0.465392 -0.290032,-1.909276 -0.07362,-2.595252 0.165524,-0.524688 1.175196,-1.619029 6.158591,-6.675028 l 3.54149,-3.593088 -14.214027,-0.05855 -14.214029,-0.05855 -0.873726,-0.450994 c -0.480549,-0.248047 -0.979333,-0.648323 -1.108409,-0.889502 -0.129075,-0.241178 -0.309684,-0.438507 -0.401353,-0.438507 -0.09167,0 -0.114591,-0.08427 -0.05094,-0.187263 0.06365,-0.102995 0.04487,-0.187264 -0.04174,-0.187264 -0.176184,0 -0.300717,-0.697944 -0.300717,-1.685371 0,-0.987426 0.124533,-1.685371 0.300717,-1.685371 0.08661,0 0.105391,-0.08427 0.04174,-0.187263 -0.06366,-0.102995 -0.03217,-0.187264 0.06996,-0.187264 0.102133,0 0.235235,-0.156084 0.295783,-0.346853 0.06055,-0.190769 0.519013,-0.569418 1.018811,-0.841443 1.156963,-0.629698 1.566162,-0.645369 17.428949,-0.667498 l 12.072016,-0.01684 -3.46183,-3.51119 c -6.352134,-6.442702 -6.40859,-6.514193 -6.395804,-8.099144 0.01041,-1.290814 0.252283,-1.849499 1.138867,-2.630617 1.280272,-1.127974 1.232962,-1.105659 2.645655,-1.24785 0.717327,-0.0722 0.981972,0.0068 1.779002,0.530725 1.205501,0.792506 16.782285,16.339364 17.238355,17.205237 0.553049,1.049994 0.476938,2.569878 -0.179093,3.576397 -0.669452,1.027108 -15.822293,16.161747 -16.94704,16.926685 -0.989652,0.673057 -2.391967,0.803304 -3.403233,0.316091 z"
     id="path3342"
     inkscape:connector-curvature="0" /><path
     style="fill:#e6e6e6"
     d="m 51.946605,69.395502 c -1.826141,-0.490929 -2.962611,-1.960015 -2.962611,-3.829694 0,-0.537263 0.129002,-1.285585 0.28667,-1.662937 0.182393,-0.43653 1.9227,-2.330938 4.784355,-5.208001 l 4.497684,-4.521903 -2.396745,-0.122234 c -1.31821,-0.06723 -7.645821,-0.122575 -14.061356,-0.122993 -11.176225,-7.49e-4 -11.694442,-0.01597 -12.377118,-0.364255 -1.32638,-0.676668 -2.264459,-2.144058 -2.267742,-3.547311 -0.0032,-1.361711 0.989441,-2.938624 2.25677,-3.585167 0.70108,-0.357664 1.162655,-0.369092 14.907981,-0.369092 l 14.184501,0 -4.695528,-4.728402 c -5.142479,-5.178482 -5.224976,-5.296621 -5.081708,-7.277274 0.152249,-2.104827 1.745104,-3.53719 3.933521,-3.53719 0.635357,0 1.35765,0.126819 1.702734,0.298962 0.854777,0.426403 16.922603,16.483898 17.408624,17.397434 0.506344,0.951729 0.535553,2.544155 0.06355,3.464373 -0.440859,0.859497 -16.489917,16.965736 -17.341024,17.402808 -0.941875,0.483687 -1.83962,0.5825 -2.842556,0.312876 z"
     id="path3343"
     inkscape:connector-curvature="0" /><path
     style="fill:#e6e6e6"
     d="m 52.043924,69.485827 c -1.726715,-0.434895 -2.896054,-1.809693 -3.022166,-3.553172 -0.142553,-1.970768 -0.04131,-2.117792 4.856003,-7.051461 2.458174,-2.476427 4.469406,-4.549103 4.469406,-4.605953 0,-0.05685 -6.288371,-0.164488 -13.974156,-0.239201 -7.685785,-0.07471 -14.165102,-0.208439 -14.398482,-0.29717 -0.716241,-0.272315 -1.817522,-1.360686 -2.176589,-2.151077 -0.435132,-0.957828 -0.435132,-2.228863 0,-3.186691 0.366073,-0.805811 1.463854,-1.880096 2.211808,-2.164468 0.269526,-0.102474 6.261935,-0.174719 14.492114,-0.174719 7.717912,0 14.032568,-0.06097 14.032568,-0.1355 0,-0.07453 -2.018153,-2.160172 -4.484784,-4.634771 -2.905079,-2.914463 -4.587085,-4.744505 -4.775218,-5.195493 -0.579823,-1.389942 -0.262739,-3.388506 0.701637,-4.422374 1.028489,-1.1026 3.316739,-1.526918 4.698457,-0.871251 0.328561,0.155913 4.398847,4.095468 9.045077,8.754566 l 8.447694,8.471089 0.233321,1.065922 c 0.188183,0.859714 0.1865,1.240098 -0.0087,1.966267 -0.224375,0.83471 -0.857213,1.517879 -8.681012,9.371432 -4.641449,4.6591 -8.700419,8.595144 -9.019936,8.746763 -0.759776,0.360539 -1.906853,0.493687 -2.647042,0.307262 l 8e-6,0 z"
     id="path3345"
     inkscape:connector-curvature="0" /></svg>